<mxfile host="Electron" agent="Mozilla/5.0 (Windows NT 10.0; Win64; x64) AppleWebKit/537.36 (KHTML, like Gecko) draw.io/25.0.2 Chrome/128.0.6613.186 Electron/32.2.5 Safari/537.36" version="25.0.2">
  <diagram name="Página-1" id="dpYnjIDbRJsrkRWt4Lvu">
    <mxGraphModel dx="961" dy="614" grid="1" gridSize="10" guides="1" tooltips="1" connect="1" arrows="1" fold="1" page="1" pageScale="1" pageWidth="827" pageHeight="1169" background="none" math="0" shadow="0">
      <root>
        <mxCell id="0" />
        <mxCell id="1" parent="0" />
        <mxCell id="_otUCf29ujNqy3i6-2pj-1" value="início" style="rounded=1;whiteSpace=wrap;html=1;fontSize=20;fontFamily=Tahoma;fontStyle=3;fillColor=#ffe6cc;strokeColor=#d79b00;" vertex="1" parent="1">
          <mxGeometry x="370" y="50" width="120" height="60" as="geometry" />
        </mxCell>
        <mxCell id="_otUCf29ujNqy3i6-2pj-5" style="edgeStyle=orthogonalEdgeStyle;rounded=0;orthogonalLoop=1;jettySize=auto;html=1;fontSize=14;fontStyle=3;fontFamily=Tahoma;fillColor=#ffe6cc;strokeColor=#d79b00;" edge="1" parent="1" source="_otUCf29ujNqy3i6-2pj-2" target="_otUCf29ujNqy3i6-2pj-3">
          <mxGeometry relative="1" as="geometry" />
        </mxCell>
        <mxCell id="_otUCf29ujNqy3i6-2pj-2" value="n1,n2 e n3" style="html=1;strokeWidth=2;shape=manualInput;whiteSpace=wrap;rounded=1;size=26;arcSize=11;fontSize=14;fontStyle=3;fontFamily=Tahoma;fillColor=#ffe6cc;strokeColor=#d79b00;" vertex="1" parent="1">
          <mxGeometry x="380" y="150" width="100" height="60" as="geometry" />
        </mxCell>
        <mxCell id="_otUCf29ujNqy3i6-2pj-6" style="edgeStyle=orthogonalEdgeStyle;rounded=0;orthogonalLoop=1;jettySize=auto;html=1;entryX=0.023;entryY=0.342;entryDx=0;entryDy=0;entryPerimeter=0;fontSize=14;fontStyle=3;fontFamily=Tahoma;fillColor=#ffe6cc;strokeColor=#d79b00;" edge="1" parent="1" source="_otUCf29ujNqy3i6-2pj-3" target="_otUCf29ujNqy3i6-2pj-7">
          <mxGeometry relative="1" as="geometry">
            <mxPoint x="590" y="300" as="targetPoint" />
          </mxGeometry>
        </mxCell>
        <mxCell id="_otUCf29ujNqy3i6-2pj-10" style="edgeStyle=orthogonalEdgeStyle;rounded=0;orthogonalLoop=1;jettySize=auto;html=1;entryX=0.5;entryY=0;entryDx=0;entryDy=0;fontSize=14;fontStyle=3;fontFamily=Tahoma;fillColor=#ffe6cc;strokeColor=#d79b00;" edge="1" parent="1" source="_otUCf29ujNqy3i6-2pj-3" target="_otUCf29ujNqy3i6-2pj-9">
          <mxGeometry relative="1" as="geometry" />
        </mxCell>
        <mxCell id="_otUCf29ujNqy3i6-2pj-3" value="n1 != n2, n2!=n3 e n3!=n1" style="rhombus;whiteSpace=wrap;html=1;fontSize=14;fontStyle=3;fontFamily=Tahoma;fillColor=#ffe6cc;strokeColor=#d79b00;" vertex="1" parent="1">
          <mxGeometry x="360" y="250" width="160" height="100" as="geometry" />
        </mxCell>
        <mxCell id="_otUCf29ujNqy3i6-2pj-4" style="edgeStyle=orthogonalEdgeStyle;rounded=0;orthogonalLoop=1;jettySize=auto;html=1;entryX=0.416;entryY=0.31;entryDx=0;entryDy=0;entryPerimeter=0;fontSize=14;fontStyle=3;fontFamily=Tahoma;fillColor=#ffe6cc;strokeColor=#d79b00;" edge="1" parent="1" source="_otUCf29ujNqy3i6-2pj-1" target="_otUCf29ujNqy3i6-2pj-2">
          <mxGeometry relative="1" as="geometry" />
        </mxCell>
        <mxCell id="_otUCf29ujNqy3i6-2pj-25" style="edgeStyle=orthogonalEdgeStyle;rounded=0;orthogonalLoop=1;jettySize=auto;html=1;entryX=1;entryY=0.25;entryDx=0;entryDy=0;fontSize=14;fontStyle=3;fontFamily=Tahoma;fillColor=#ffe6cc;strokeColor=#d79b00;" edge="1" parent="1" source="_otUCf29ujNqy3i6-2pj-7" target="_otUCf29ujNqy3i6-2pj-2">
          <mxGeometry relative="1" as="geometry">
            <Array as="points">
              <mxPoint x="670" y="165" />
            </Array>
          </mxGeometry>
        </mxCell>
        <mxCell id="_otUCf29ujNqy3i6-2pj-7" value="&quot;Os números precisam ser diferentes uns dos outros. Volte ao início e insira outros valores.&quot;" style="shape=document;whiteSpace=wrap;html=1;boundedLbl=1;fontSize=14;fontStyle=3;fontFamily=Tahoma;fillColor=#ffe6cc;strokeColor=#d79b00;" vertex="1" parent="1">
          <mxGeometry x="590" y="270" width="170" height="90" as="geometry" />
        </mxCell>
        <mxCell id="_otUCf29ujNqy3i6-2pj-13" style="edgeStyle=orthogonalEdgeStyle;rounded=0;orthogonalLoop=1;jettySize=auto;html=1;fontSize=14;fontStyle=3;fontFamily=Tahoma;fillColor=#ffe6cc;strokeColor=#d79b00;" edge="1" parent="1" source="_otUCf29ujNqy3i6-2pj-9" target="_otUCf29ujNqy3i6-2pj-11">
          <mxGeometry relative="1" as="geometry" />
        </mxCell>
        <mxCell id="_otUCf29ujNqy3i6-2pj-14" style="edgeStyle=orthogonalEdgeStyle;rounded=0;orthogonalLoop=1;jettySize=auto;html=1;entryX=0.5;entryY=0;entryDx=0;entryDy=0;fontSize=14;fontStyle=3;fontFamily=Tahoma;fillColor=#ffe6cc;strokeColor=#d79b00;" edge="1" parent="1" source="_otUCf29ujNqy3i6-2pj-9" target="_otUCf29ujNqy3i6-2pj-12">
          <mxGeometry relative="1" as="geometry" />
        </mxCell>
        <mxCell id="_otUCf29ujNqy3i6-2pj-9" value="n1&amp;gt;n2 e n1&amp;gt;n3" style="rhombus;whiteSpace=wrap;html=1;fontSize=14;fontStyle=3;fontFamily=Tahoma;fillColor=#ffe6cc;strokeColor=#d79b00;" vertex="1" parent="1">
          <mxGeometry x="180" y="350" width="150" height="90" as="geometry" />
        </mxCell>
        <mxCell id="_otUCf29ujNqy3i6-2pj-11" value="&quot;n1 é o maior número&quot;" style="shape=document;whiteSpace=wrap;html=1;boundedLbl=1;fontSize=14;fontStyle=3;fontFamily=Tahoma;fillColor=#ffe6cc;strokeColor=#d79b00;" vertex="1" parent="1">
          <mxGeometry x="10" y="355" width="120" height="80" as="geometry" />
        </mxCell>
        <mxCell id="_otUCf29ujNqy3i6-2pj-12" value="n2&amp;gt;n1 e n2&amp;gt;n3" style="rhombus;whiteSpace=wrap;html=1;fontSize=14;fontStyle=3;fontFamily=Tahoma;fillColor=#ffe6cc;strokeColor=#d79b00;" vertex="1" parent="1">
          <mxGeometry x="360" y="440" width="140" height="90" as="geometry" />
        </mxCell>
        <mxCell id="_otUCf29ujNqy3i6-2pj-23" style="edgeStyle=orthogonalEdgeStyle;rounded=0;orthogonalLoop=1;jettySize=auto;html=1;entryX=0;entryY=0.5;entryDx=0;entryDy=0;exitX=0.63;exitY=0.708;exitDx=0;exitDy=0;exitPerimeter=0;fontSize=14;fontStyle=3;fontFamily=Tahoma;fillColor=#ffe6cc;strokeColor=#d79b00;" edge="1" parent="1" source="_otUCf29ujNqy3i6-2pj-15" target="_otUCf29ujNqy3i6-2pj-20">
          <mxGeometry relative="1" as="geometry">
            <mxPoint x="230" y="530" as="sourcePoint" />
            <Array as="points">
              <mxPoint x="230" y="517" />
              <mxPoint x="230" y="650" />
            </Array>
          </mxGeometry>
        </mxCell>
        <mxCell id="_otUCf29ujNqy3i6-2pj-15" value="&quot;n2 é o maior número&quot;" style="shape=document;whiteSpace=wrap;html=1;boundedLbl=1;fontSize=14;fontStyle=3;fontFamily=Tahoma;fillColor=#ffe6cc;strokeColor=#d79b00;" vertex="1" parent="1">
          <mxGeometry x="150" y="460" width="120" height="80" as="geometry" />
        </mxCell>
        <mxCell id="_otUCf29ujNqy3i6-2pj-16" style="edgeStyle=orthogonalEdgeStyle;rounded=0;orthogonalLoop=1;jettySize=auto;html=1;entryX=0.917;entryY=0.125;entryDx=0;entryDy=0;entryPerimeter=0;fontSize=14;fontStyle=3;fontFamily=Tahoma;fillColor=#ffe6cc;strokeColor=#d79b00;" edge="1" parent="1" source="_otUCf29ujNqy3i6-2pj-12" target="_otUCf29ujNqy3i6-2pj-15">
          <mxGeometry relative="1" as="geometry" />
        </mxCell>
        <mxCell id="_otUCf29ujNqy3i6-2pj-24" style="edgeStyle=orthogonalEdgeStyle;rounded=0;orthogonalLoop=1;jettySize=auto;html=1;fontSize=14;fontStyle=3;fontFamily=Tahoma;fillColor=#ffe6cc;strokeColor=#d79b00;" edge="1" parent="1" source="_otUCf29ujNqy3i6-2pj-18" target="_otUCf29ujNqy3i6-2pj-20">
          <mxGeometry relative="1" as="geometry">
            <Array as="points">
              <mxPoint x="600" y="650" />
            </Array>
          </mxGeometry>
        </mxCell>
        <mxCell id="_otUCf29ujNqy3i6-2pj-18" value="&quot;n3 é o maior número&quot;" style="shape=document;whiteSpace=wrap;html=1;boundedLbl=1;fontSize=14;fontStyle=3;fontFamily=Tahoma;fillColor=#ffe6cc;strokeColor=#d79b00;" vertex="1" parent="1">
          <mxGeometry x="570" y="450" width="120" height="80" as="geometry" />
        </mxCell>
        <mxCell id="_otUCf29ujNqy3i6-2pj-19" style="edgeStyle=orthogonalEdgeStyle;rounded=0;orthogonalLoop=1;jettySize=auto;html=1;entryX=0.03;entryY=0.363;entryDx=0;entryDy=0;entryPerimeter=0;fontSize=14;fontStyle=3;fontFamily=Tahoma;fillColor=#ffe6cc;strokeColor=#d79b00;" edge="1" parent="1" source="_otUCf29ujNqy3i6-2pj-12" target="_otUCf29ujNqy3i6-2pj-18">
          <mxGeometry relative="1" as="geometry" />
        </mxCell>
        <mxCell id="_otUCf29ujNqy3i6-2pj-20" value="Fim" style="rounded=1;whiteSpace=wrap;html=1;fontSize=14;fontStyle=3;fontFamily=Tahoma;fillColor=#ffe6cc;strokeColor=#d79b00;" vertex="1" parent="1">
          <mxGeometry x="380" y="620" width="120" height="60" as="geometry" />
        </mxCell>
        <mxCell id="_otUCf29ujNqy3i6-2pj-26" value="SIM" style="text;html=1;align=center;verticalAlign=middle;whiteSpace=wrap;rounded=0;fontSize=14;fontStyle=3;fontFamily=Tahoma;fillColor=#ffe6cc;strokeColor=#d79b00;" vertex="1" parent="1">
          <mxGeometry x="270" y="290" width="60" as="geometry" />
        </mxCell>
        <mxCell id="_otUCf29ujNqy3i6-2pj-27" value="Não" style="text;html=1;align=center;verticalAlign=middle;whiteSpace=wrap;rounded=0;fontSize=14;fontStyle=3;fontFamily=Tahoma;fillColor=#ffe6cc;strokeColor=#d79b00;" vertex="1" parent="1">
          <mxGeometry x="520" y="290" width="60" as="geometry" />
        </mxCell>
        <mxCell id="_otUCf29ujNqy3i6-2pj-29" value="SIM" style="text;html=1;align=center;verticalAlign=middle;whiteSpace=wrap;rounded=0;fontSize=14;fontStyle=3;fontFamily=Tahoma;fillColor=#ffe6cc;strokeColor=#d79b00;" vertex="1" parent="1">
          <mxGeometry x="320" y="470" width="40" as="geometry" />
        </mxCell>
        <mxCell id="_otUCf29ujNqy3i6-2pj-30" value="Não" style="text;html=1;align=center;verticalAlign=middle;whiteSpace=wrap;rounded=0;fontSize=14;fontStyle=3;fontFamily=Tahoma;fillColor=#ffe6cc;strokeColor=#d79b00;" vertex="1" parent="1">
          <mxGeometry x="340" y="380" width="60" as="geometry" />
        </mxCell>
        <mxCell id="_otUCf29ujNqy3i6-2pj-31" value="Não" style="text;html=1;align=center;verticalAlign=middle;whiteSpace=wrap;rounded=0;fontSize=14;fontStyle=3;fontFamily=Tahoma;fillColor=#ffe6cc;strokeColor=#d79b00;" vertex="1" parent="1">
          <mxGeometry x="510" y="470" width="40" as="geometry" />
        </mxCell>
        <mxCell id="_otUCf29ujNqy3i6-2pj-35" value="SIM" style="text;html=1;align=center;verticalAlign=middle;whiteSpace=wrap;rounded=0;fontSize=14;fontStyle=3;fontFamily=Tahoma;fillColor=#ffe6cc;strokeColor=#d79b00;" vertex="1" parent="1">
          <mxGeometry x="130" y="380" width="60" as="geometry" />
        </mxCell>
      </root>
    </mxGraphModel>
  </diagram>
</mxfile>
